<svg width="24" height="81" viewBox="0 0 24 81" fill="none" xmlns="http://www.w3.org/2000/svg">
<g opacity="0.1">
<path d="M18.9837 79.2921C19.449 80.0951 20.3159 80.6378 21.3104 80.6378C22.7955 80.6378 23.9984 79.4349 23.9984 77.9498C23.9984 76.4648 22.7955 75.2619 21.3104 75.2619L16.6553 75.2619L18.9837 79.2938L18.9837 79.2921Z" fill="#F2F8F9"/>
<path d="M9.67336 73.9163C10.1387 74.7193 11.0056 75.262 12.0001 75.262L16.6552 75.262L14.3268 71.2301L14.3268 71.2318C13.8615 70.4287 12.9946 69.8861 11.9984 69.8861L7.34326 69.8861L9.67168 73.918L9.67168 73.9163L9.67336 73.9163Z" fill="#F2F8F9"/>
<path d="M18.9836 55.1042L18.9836 55.1025L16.6552 59.1344L21.3104 59.1344C22.7954 59.1344 23.9983 57.9315 23.9983 56.4464C23.9983 54.9614 22.7954 53.7585 21.3104 53.7585C20.3158 53.7585 19.449 54.3011 18.9836 55.1042Z" fill="#F2F8F9"/>
<path d="M7.34494 64.5103L2.68811 64.5103L2.68811 64.5119C2.23284 64.5119 1.76917 64.6245 1.34415 64.8698C0.0589813 65.6123 -0.381166 67.2553 0.359693 68.5421C0.856959 69.404 1.76077 69.8827 2.68811 69.8844L2.68811 69.8861L7.34326 69.8861L5.79098 67.1982L7.34326 64.5103L7.34494 64.5103Z" fill="#F2F8F9"/>
<path d="M9.67333 60.48L9.67333 60.4783L7.34491 64.5102L12.0001 64.5102C12.9946 64.5102 13.8615 63.9676 14.3268 63.1646L14.3268 63.1663L16.6552 59.1344L12.0001 59.1344C11.0055 59.1344 10.1387 59.677 9.67333 60.48Z" fill="#F2F8F9"/>
<path d="M5.01484 52.4129C4.5495 53.2159 3.68264 53.7585 2.68811 53.7585C1.20303 53.7585 0.000183053 52.5557 0.000182988 51.0706C0.000182923 49.5855 1.20303 48.3827 2.68811 48.3827L7.34326 48.3827L5.01484 52.4146L5.01484 52.4129Z" fill="#F2F8F9"/>
<path d="M14.3269 47.037C13.8615 47.84 12.9947 48.3827 12.0001 48.3827L7.34497 48.3827L9.67339 44.3508L9.67339 44.3525C10.1387 43.5494 11.0056 43.0068 12.0018 43.0068L16.657 43.0068L14.3285 47.0387L14.3285 47.037L14.3269 47.037Z" fill="#F2F8F9"/>
<path d="M5.01484 28.2249L5.01484 28.2232L7.34326 32.2551L2.68811 32.2551C1.20303 32.2551 0.000183053 31.0523 0.000182988 29.5672C0.000182923 28.0821 1.20303 26.8793 2.68811 26.8793C3.68264 26.8793 4.5495 27.4219 5.01484 28.2249Z" fill="#F2F8F9"/>
<path d="M16.6553 37.6309L21.3104 37.6309L21.3104 37.6326C21.7657 37.6326 22.2294 37.7452 22.6544 37.9904C23.9396 38.733 24.3797 40.376 23.6388 41.6628C23.1416 42.5246 22.2378 43.0034 21.3104 43.0051L21.3104 43.0068L16.6553 43.0068L18.2076 40.3188L16.6553 37.6309Z" fill="#F2F8F9"/>
<path d="M14.3269 33.6008L14.3269 33.5991L16.6553 37.631L12.0001 37.631C11.0056 37.631 10.1387 37.0884 9.67339 36.2853L9.67339 36.287L7.34497 32.2551L12.0001 32.2551C12.9947 32.2551 13.8615 32.7978 14.3269 33.6008Z" fill="#F2F8F9"/>
<path d="M18.9853 25.5336C19.4507 26.3366 20.3175 26.8793 21.3121 26.8793C22.7972 26.8793 24 25.6764 24 24.1913C24 22.7063 22.7972 21.5034 21.3121 21.5034L16.6569 21.5034L18.9853 25.5353L18.9853 25.5336Z" fill="#F2F8F9"/>
<path d="M9.67336 20.1578C10.1387 20.9608 11.0056 21.5034 12.0001 21.5034L16.6552 21.5034L14.3268 17.4715L14.3268 17.4732C13.8615 16.6702 12.9946 16.1276 11.9984 16.1276L7.34326 16.1276L9.67168 20.1595L9.67168 20.1578L9.67336 20.1578Z" fill="#F2F8F9"/>
<path d="M18.9853 1.34562L18.9853 1.34393L16.6569 5.37582L21.3121 5.37582C22.7972 5.37582 24 4.17298 24 2.6879C24 1.20282 22.7972 -2.7925e-05 21.3121 -2.786e-05C20.3175 -2.78166e-05 19.4507 0.542599 18.9853 1.34562Z" fill="#F2F8F9"/>
<path d="M7.34494 10.7517L2.68811 10.7517L2.68811 10.7534C2.23284 10.7534 1.76917 10.8659 1.34415 11.1112C0.0589813 11.8537 -0.381166 13.4967 0.359693 14.7836C0.856959 15.6454 1.76077 16.1242 2.68811 16.1259L2.68811 16.1275L7.34326 16.1275L5.79098 13.4396L7.34326 10.7517L7.34494 10.7517Z" fill="#F2F8F9"/>
<path d="M9.67333 6.72147L9.67333 6.71979L7.34491 10.7517L12.0001 10.7517C12.9946 10.7517 13.8615 10.2091 14.3268 9.40603L14.3268 9.40772L16.6552 5.37583L12.0001 5.37583C11.0055 5.37583 10.1387 5.91845 9.67333 6.72147Z" fill="#F2F8F9"/>
</g>
</svg>
